<svg xmlns="http://www.w3.org/2000/svg" viewBox="0 0 164.43 164.43"><defs><style>.cls-1{fill:#009444;}</style></defs><g id="Layer_2" data-name="Layer 2"><g id="Layer_1-2" data-name="Layer 1"><path class="cls-1" d="M163.93,73.07a81.35,81.35,0,0,0-4.18-18.27c-.92-2.6-2-5.15-3.13-7.63a83.07,83.07,0,0,0-6-10.64,73.32,73.32,0,0,0-4.42-6,81.41,81.41,0,0,0-12.27-12.28h0c-.25-.21-.5-.42-.76-.61q-2.53-2-5.23-3.81h0A81.51,81.51,0,0,0,99.24,1.77,78.41,78.41,0,0,0,91.36.5,83.71,83.71,0,0,0,82.22,0q-1.95,0-3.87.09c-1.77.08-3.53.22-5.26.41A81.53,81.53,0,0,0,54.86,4.66l0,.09V4.68a81.67,81.67,0,0,0-18.28,9.16c-2.07,1.39-4.06,2.86-6,4.42-.62.5-1.24,1-1.84,1.54A82.13,82.13,0,0,0,18.27,30.54c-1.56,1.93-3,3.92-4.42,6A81.74,81.74,0,0,0,.5,73.07a83.7,83.7,0,0,0,0,18.27,81.86,81.86,0,0,0,13.34,36.55h0c1.38,2.06,2.85,4.06,4.42,6h0a80.9,80.9,0,0,0,10.44,10.74c.6.54,1.22,1,1.84,1.54,1.93,1.57,3.92,3,6,4.41a81.29,81.29,0,0,0,18.28,9.17v-.07a.25.25,0,0,0,0,.09,81,81,0,0,0,18.23,4.16c1.73.2,3.49.33,5.26.41,1.28.06,2.57.1,3.87.1a83.71,83.71,0,0,0,9.14-.51c2.67-.29,5.3-.72,7.89-1.26a81,81,0,0,0,10.38-2.92,83.77,83.77,0,0,0,7.89-3.25,82.1,82.1,0,0,0,10.37-5.91h0q2.7-1.78,5.23-3.79c.26-.2.51-.4.76-.62h0a80.49,80.49,0,0,0,12.27-12.28h0a73.16,73.16,0,0,0,4.42-6h0a82.88,82.88,0,0,0,9.16-18.27,81.69,81.69,0,0,0,4.18-18.28,83.7,83.7,0,0,0,0-18.27ZM145.51,91.34a63.41,63.41,0,0,1-5.5,18.28h0A63.68,63.68,0,0,1,127.89,127l-.91.92c-1.38,1.34-2.82,2.63-4.31,3.85a63.15,63.15,0,0,1-13,8.25h0c-.86.41-1.72.8-2.58,1.16a63.18,63.18,0,0,1-15.69,4.34V127a45.77,45.77,0,0,0,18.27-8.22,47.94,47.94,0,0,0,5.2-4.56A45.87,45.87,0,0,0,127,91.34H108.06A27.41,27.41,0,0,1,94,107a25.61,25.61,0,0,1-2.59,1.07V56.37A25.67,25.67,0,0,1,94,57.45a27.44,27.44,0,0,1,14.11,15.62H127a45.6,45.6,0,0,0-8.23-18.27,46.49,46.49,0,0,0-3.93-4.58A45.8,45.8,0,0,0,99.19,39.8a45.08,45.08,0,0,0-7.83-2.35,45.92,45.92,0,0,0-9.14-.91l-1.32,0A45.38,45.38,0,0,0,60,42.28a45.09,45.09,0,0,0-5.21,3.38h0a45.66,45.66,0,0,0-9.13,9.13h0a45.45,45.45,0,0,0-8.22,18.27H56.38a27.46,27.46,0,0,1,16.71-16.7v51.68A27.43,27.43,0,0,1,56.38,91.34H37.46a45.29,45.29,0,0,0,8.22,18.28,45.76,45.76,0,0,0,9.14,9.14A45.16,45.16,0,0,0,60,122.15,45.81,45.81,0,0,0,73.09,127V145.5c-1.77-.25-3.5-.57-5.21-1a64,64,0,0,1-30.41-16.65h0c-.32-.31-.62-.62-.93-.93h0A63.6,63.6,0,0,1,18.93,91.34a65.23,65.23,0,0,1-.64-8c0-.38,0-.77,0-1.16s0-.78,0-1.17a65.39,65.39,0,0,1,.64-8,63.61,63.61,0,0,1,17.61-35.6l.93-.94a62.9,62.9,0,0,1,6.88-5.85,64.57,64.57,0,0,1,10.47-6.26,63.07,63.07,0,0,1,13.06-4.54c1.71-.39,3.44-.71,5.21-1a63.82,63.82,0,0,1,9.13-.65c2.21,0,4.39.12,6.55.33.87.09,1.73.19,2.59.32a63.62,63.62,0,0,1,15.69,4.34c.86.37,1.72.76,2.58,1.16a64.48,64.48,0,0,1,13,8.26c1.49,1.21,2.92,2.5,4.29,3.85h0c.31.31.62.61.92.93h0a62.5,62.5,0,0,1,7.83,9.7A64,64,0,0,1,140,54.8h0a63.25,63.25,0,0,1,5.5,18.27,64.52,64.52,0,0,1,0,18.27Z"/></g></g></svg>